<?xml version="1.0" encoding="UTF-8" standalone="no"?>
<svg
   width="1013.9662pt"
   height="984.81622pt"
   version="1.1"
   viewBox="0 0 1013.9662 984.81622"
   id="svg3"
   sodipodi:docname="gtfs-logo.svg"
   inkscape:version="1.3.2 (091e20e, 2023-11-25)"
   xmlns:inkscape="http://www.inkscape.org/namespaces/inkscape"
   xmlns:sodipodi="http://sodipodi.sourceforge.net/DTD/sodipodi-0.dtd"
   xmlns="http://www.w3.org/2000/svg"
   xmlns:svg="http://www.w3.org/2000/svg">
  <defs
     id="defs3" />
  <sodipodi:namedview
     id="namedview3"
     pagecolor="#ffffff"
     bordercolor="#000000"
     borderopacity="0.25"
     inkscape:showpageshadow="2"
     inkscape:pageopacity="0.0"
     inkscape:pagecheckerboard="0"
     inkscape:deskcolor="#d1d1d1"
     inkscape:document-units="pt"
     inkscape:zoom="0.48388482"
     inkscape:cx="669.58083"
     inkscape:cy="690.24691"
     inkscape:window-width="1760"
     inkscape:window-height="1017"
     inkscape:window-x="234"
     inkscape:window-y="215"
     inkscape:window-maximized="0"
     inkscape:current-layer="svg3" />
  <path
     d="m 857.81461,614.02925 16.969,16.969 c 9.3711,9.3711 9.3711,24.562 0,33.938 l -63.637,63.637 c -2.3398,2.3398 -2.3398,6.1445 0,8.4844 l 63.637,63.637 c 9.3711,9.3711 9.3711,24.562 0,33.938 l -16.969,16.969 c -9.3711,9.3711 -24.562,9.3711 -33.938,0 l -63.637,-63.637 c -2.3398,-2.3398 -6.1445,-2.3398 -8.4844,0 l -63.637,63.637 c -9.3711,9.3711 -24.562,9.3711 -33.938,0 l -16.969,-16.969 c -9.3711,-9.3711 -9.3711,-24.562 0,-33.938 l 63.637,-63.637 c 2.3398,-2.3398 2.3398,-6.1445 0,-8.4844 l -63.637,-63.637 c -9.3711,-9.3711 -9.3711,-24.562 0,-33.938 l 16.969,-16.969 c 9.3711,-9.3711 24.562,-9.3711 33.938,0 l 63.637,63.637 c 2.3398,2.3398 6.1445,2.3398 8.4844,0 l 63.637,-63.637 c 9.375,-9.3828 24.566,-9.3828 33.938,0 z"
     id="path1" />
  <path
     d="m 1010.5946,204.61925 -113.93999,-192.83 c -9.2891,-15.719 -32.039,-15.719 -41.328,0 l -113.94,192.83 c -9.4531,15.996 2.0781,36.203 20.664,36.203 h 71.941 c 3.3125,0 6,2.6875 6,6 v 42 c 0,79.523 -64.477,144 -144,144 h -360 c -119.29,0 -216,96.707 -216,216 v 23.773 c 0,2.6992 -1.8359,4.9922 -4.4414,5.6875 -71.594001,19.188 -122.9300009,87.875 -114.68000094,167.22 7.46480004,71.867 65.47299994,130.34 137.28000094,138.32 94.141,10.453 173.84,-62.965 173.84,-155 0,-72.145 -49.031,-132.7 -115.55,-150.53 -2.6172,-0.70703 -4.4531,-3.0117 -4.4531,-5.7109 v -23.762 c 0,-79.523 64.477,-144 144,-144 h 360 c 119.29,0 216,-96.707 216,-216 v -42 c 0,-3.3125 2.6875,-6 6,-6 h 71.941 c 18.58599,0 30.11699,-20.207 20.66399,-36.203 z m -770.60999,624.2 c 0,46.32 -37.68,84 -84,84 -46.32,0 -84.000001,-37.68 -84.000001,-84 0,-46.32 37.680001,-84 84.000001,-84 46.32,0 84,37.68 84,84 z"
     id="path2" />
  <path
     d="m 377.81461,86.02925 16.969,16.969 c 9.3711,9.3711 9.3711,24.562 0,33.938 l -63.637,63.637 c -2.3398,2.3398 -2.3398,6.1445 0,8.4844 l 63.637,63.637 c 9.3711,9.3711 9.3711,24.562 0,33.938 l -16.969,16.969 c -9.3711,9.3711 -24.562,9.3711 -33.938,0 l -63.637,-63.637 c -2.3398,-2.3398 -6.1445,-2.3398 -8.4844,0 l -63.637,63.637 c -9.3711,9.3711 -24.562,9.3711 -33.938,0 l -16.969,-16.969 c -9.3711,-9.3711 -9.3711,-24.562 0,-33.938 l 63.637,-63.637 c 2.3398,-2.3398 2.3398,-6.1445 0,-8.4844 l -63.637,-63.637 c -9.3711,-9.3711 -9.3711,-24.562 0,-33.938 l 16.969,-16.969 c 9.3711,-9.3711 24.562,-9.3711 33.938,0 l 63.637,63.637 c 2.3398,2.3398 6.1445,2.3398 8.4844,0 l 63.637,-63.637 c 9.375,-9.3828 24.566,-9.3828 33.938,0 z"
     id="path3" />
</svg>
